<svg viewBox="0 0 100 100" xmlns="http://www.w3.org/2000/svg" role="img" aria-label="HP">
  <title>HP</title>
  <!-- Official Blue Circle Background -->
  <circle cx="50" cy="50" r="48" fill="#0055D6" />

  <!-- White HP Slanted Vector Mark -->
  <g transform="skewX(-14) translate(14, 0)" fill="#FFFFFF">
    <!-- h stem extending out top -->
    <rect x="22" y="-4" width="10" height="74" rx="1.5" />
    <!-- h arch & right leg -->
    <path d="M 32 38 C 32 31 38 27 45 27 C 50 27 54 31 54 38 V 70 H 44 V 42 C 44 38 41 36 38 36 C 35 36 32 38 32 42 Z" />
    
    <!-- p stem extending out bottom -->
    <rect x="58" y="27" width="10" height="76" rx="1.5" />
    <!-- p bowl -->
    <path d="M 68 27 C 77 27 85 33 85 46 C 85 59 77 65 68 65 V 55 C 72 55 75 51 75 46 C 75 41 72 37 68 37 Z" />
  </g>
</svg>