<svg viewBox="0 0 280 75" xmlns="http://www.w3.org/2000/svg" role="img" aria-label="Zscaler">
  <title>Zscaler</title>
  <g transform="translate(6, 6)">
    <!-- Blue Cloud Icon -->
    <path
      d="M 28 52 C 14 52 4 42 4 28 C 4 16 14 6 26 6 C 32 6 38 9 42 14 C 47 9 54 6 62 6 C 75 6 86 16 86 28 C 86 30 85 32 85 34 C 89 36 92 41 92 46 C 92 52 87 56 80 56 C 76 56 70 52 64 52 Z"
      fill="#1868EC"
    />
    <!-- Cloud Swoosh Cutout -->
    <path
      d="M 18 36 C 28 26 44 20 66 22 C 54 30 40 38 24 44 Z"
      fill="#FFFFFF"
    />
    
    <!-- Italicized zscaler Wordmark -->
    <text
      x="102"
      y="48"
      font-family="'Montserrat', 'Helvetica Neue', 'Arial', sans-serif"
      font-style="italic"
      font-weight="800"
      font-size="38"
      letter-spacing="-0.5"
      fill="#1868EC"
    >zscaler</text>
  </g>
</svg>
